<?xml version="1.0" encoding="utf-8"?>
<!-- Generator: Adobe Illustrator 17.0.0, SVG Export Plug-In . SVG Version: 6.00 Build 0)  -->
<!DOCTYPE svg PUBLIC "-//W3C//DTD SVG 1.1//EN" "http://www.w3.org/Graphics/SVG/1.1/DTD/svg11.dtd">
<svg version="1.1" id="Layer_1" xmlns="http://www.w3.org/2000/svg" xmlns:xlink="http://www.w3.org/1999/xlink" x="0px" y="0px"
	 width="792px" height="84.97px" viewBox="0 0 792 84.97" enable-background="new 0 0 792 84.97" xml:space="preserve">
<path fill="#FFFFFF" d="M90.805,30.983c-15.495,4.425-6.381,25.429-20.037,13.268C57.102,32.086,48.9,30.983,33.412,36.511
	C17.93,42.039,11.555,53.096,11.555,53.096s21.383-9.144,32.794-2.229c18.216,11.067,11.613,33.154,41.894,22.124
	c9.112-3.31,51.926-25.425,51.926-25.425C133.613,42.039,106.29,26.547,90.805,30.983z M80.774,64.154
	c-5.464-1.114-22.771-12.177-22.771-12.177s7.296,0,18.228,2.229c10.919,2.207,11.844-3.338,17.297-12.166
	c5.463-8.849,28.243,5.528,28.243,5.528S91.032,66.224,80.774,64.154z"/>
<path fill="#FFFFFF" d="M-0.285,65.81c12.748,2.763,18.65,7.497,25.972,9.394c12.743,3.316,20.022-5.522,20.022-5.522
	c-9.099-20.468-19.124-12.161-19.124-12.161C20.202,64.154-0.285,65.81-0.285,65.81z"/>
<path fill="#FFFFFF" d="M184.257,35.889c-2.132,0-3.956,0.169-5.493,0.492c-1.541,0.331-2.93,0.755-4.18,1.267
	c-1.243,0.516-2.409,1.1-3.508,1.763c-1.104,0.658-2.243,1.355-3.409,2.082l-7.914,41.852h-15.49l10.878-57.667h14.499l-1.646,8.34
	c2.129-1.896,4.119-3.509,5.984-4.833c1.873-1.321,3.755-2.341,5.661-3.076c1.688-0.655,3.442-1.078,5.274-1.263
	c1.832-0.181,3.594-0.266,5.274-0.266c0.953,0,1.827,0.015,2.634,0.05c0.806,0.035,1.502,0.054,2.089,0.054l-2.19,11.316
	L184.257,35.889z"/>
<path fill="#FFFFFF" d="M270.552,54.452c-0.284,1.479-0.637,3.194-1.037,5.17c-0.403,1.982-1.058,4.034-1.979,6.147
	c-0.917,2.125-2.173,4.23-3.788,6.324c-1.613,2.086-3.771,4.007-6.477,5.763c-3.301,2.132-7.455,3.846-12.476,5.166
	c-5.017,1.312-11.331,1.979-18.943,1.979c-8.209,0-14.654-0.767-19.336-2.314c-4.691-1.532-8.17-3.476-10.444-5.816
	c-1.832-1.906-3.061-3.911-3.678-6.045c-0.623-2.121-0.93-4.246-0.93-6.374c0-1.898,0.146-3.715,0.438-5.432
	c0.292-1.725,0.582-3.246,0.876-4.569c0.296-1.536,0.682-3.38,1.153-5.543c0.482-2.159,1.245-4.376,2.309-6.653
	c1.066-2.259,2.568-4.496,4.507-6.69c1.939-2.199,4.562-4.183,7.85-5.942c3.224-1.674,7.18-3.049,11.869-4.115
	c4.681-1.059,10.365-1.59,17.028-1.59c4.03,0,7.616,0.197,10.767,0.605c3.148,0.404,5.927,0.974,8.35,1.702
	c2.415,0.735,4.466,1.578,6.153,2.525c1.681,0.951,3.104,2.018,4.28,3.188c1.907,1.9,3.186,3.974,3.847,6.203
	c0.661,2.232,0.985,4.419,0.985,6.537c0,1.906-0.144,3.711-0.437,5.381C271.148,51.749,270.851,53.212,270.552,54.452z
	 M253.97,54.452c0.66-3.507,0.993-6.514,0.993-9c0-2.267-0.333-4.215-0.993-5.832c-0.655-1.602-1.738-2.906-3.245-3.896
	c-1.496-0.982-3.474-1.717-5.93-2.186c-2.454-0.485-5.51-0.72-9.168-0.72c-4.618,0-8.463,0.381-11.535,1.151
	c-3.083,0.774-5.593,2.017-7.533,3.738c-1.938,1.721-3.451,3.957-4.557,6.703c-1.092,2.748-2.016,6.097-2.745,10.043
	c-0.364,1.759-0.645,3.411-0.823,4.953c-0.187,1.536-0.27,2.926-0.27,4.166c0,2.279,0.327,4.199,0.986,5.778
	c0.657,1.57,1.739,2.848,3.239,3.846c1.503,0.985,3.474,1.713,5.931,2.194c2.455,0.469,5.509,0.712,9.181,0.712
	c4.684,0,8.54-0.385,11.584-1.146c3.038-0.774,5.547-2.021,7.527-3.742c1.972-1.717,3.514-3.961,4.616-6.703
	C252.321,61.758,253.234,58.413,253.97,54.452z"/>
<path fill="#FFFFFF" d="M347.927,35.566c-0.583-0.073-1.736-0.22-3.463-0.451c-1.715-0.212-3.734-0.431-6.042-0.651
	c-2.309-0.223-4.741-0.419-7.307-0.604c-2.563-0.181-4.977-0.273-7.247-0.273c-5.42,0-9.813,0.431-13.175,1.316
	c-3.375,0.874-6.071,2.175-8.082,3.9c-2.019,1.72-3.521,3.822-4.508,6.309c-0.986,2.498-1.77,5.316-2.352,8.464l-0.993,4.943
	c-0.296,1.471-0.443,2.938-0.443,4.392c0,4.332,1.722,7.422,5.161,9.285c3.447,1.871,9.118,2.807,17.033,2.807
	c2.05,0,4.242-0.073,6.589-0.219c2.343-0.147,4.632-0.313,6.867-0.498c2.236-0.185,4.304-0.389,6.204-0.6
	c1.905-0.227,3.447-0.404,4.612-0.554l-1.646,9.015c-0.583,0.069-1.882,0.228-3.896,0.494c-2.02,0.258-4.337,0.531-6.978,0.816
	c-2.64,0.288-5.434,0.55-8.4,0.778c-2.971,0.213-5.73,0.323-8.296,0.323c-6.154,0-11.377-0.474-15.657-1.428
	c-4.282-0.948-7.763-2.321-10.435-4.119c-2.674-1.794-4.63-3.953-5.881-6.479c-1.248-2.533-1.865-5.365-1.865-8.507
	c0-0.963,0.057-1.909,0.163-2.869c0.112-0.95,0.24-1.936,0.387-2.96l1.43-7.48c0.217-1.163,0.565-2.649,1.04-4.443
	c0.476-1.8,1.252-3.683,2.312-5.654c1.057-1.988,2.503-3.958,4.336-5.936c1.828-1.979,4.233-3.74,7.191-5.272
	c2.97-1.548,6.556-2.806,10.771-3.792c4.216-0.989,9.249-1.485,15.109-1.485c3.297,0,6.554,0.127,9.776,0.389
	c3.228,0.258,6.186,0.532,8.895,0.816c2.718,0.292,4.98,0.608,6.812,0.943c1.836,0.323,3.045,0.527,3.628,0.601L347.927,35.566z"/>
<path fill="#FFFFFF" d="M400.358,83.346L373.44,54.452h-2.422l-5.381,28.894h-15.932l15.714-83.051h15.82l-9.117,48.787h2.304
	l36.031-23.403h20.553l-40.656,24.828l32.193,32.84H400.358z"/>
<path fill="#FFFFFF" d="M501.122,50.718c-0.218,1.1-0.462,2.144-0.711,3.137c-0.263,0.99-0.501,1.886-0.721,2.695
	c-0.29,0.869-0.513,1.752-0.662,2.633h-56.36l-0.11,0.651c-0.148,0.804-0.25,1.55-0.327,2.244c-0.074,0.692-0.11,1.363-0.11,2.013
	c0,2.983,0.631,5.282,1.87,6.872c1.247,1.604,2.906,2.756,5.004,3.44c2.079,0.698,4.477,1.098,7.195,1.213
	c2.702,0.1,5.489,0.154,8.342,0.154c3.002,0,5.913-0.065,8.738-0.212c2.822-0.131,5.373-0.3,7.687-0.5
	c2.313-0.219,4.257-0.401,5.87-0.578c1.621-0.165,2.718-0.292,3.303-0.362l-1.644,8.904c-0.59,0.073-1.725,0.215-3.411,0.435
	c-1.686,0.227-3.695,0.462-6.04,0.716c-2.349,0.259-4.927,0.477-7.745,0.662c-2.822,0.182-5.624,0.277-8.407,0.277
	c-6.663,0-12.341-0.385-17.034-1.159c-4.68-0.766-8.491-1.994-11.421-3.676c-2.929-1.681-5.071-3.811-6.42-6.378
	c-1.359-2.552-2.035-5.67-2.035-9.331c0-1.251,0.066-2.567,0.22-3.957c0.144-1.39,0.369-2.852,0.66-4.4l0.985-5.593
	c0.73-3.811,2.07-7.33,4.014-10.548c1.938-3.229,4.586-6.024,7.957-8.405c3.377-2.39,7.511-4.23,12.42-5.554
	c4.912-1.317,10.698-1.975,17.349-1.975c5.716,0,10.632,0.423,14.728,1.262c4.1,0.839,7.438,2.086,10.005,3.73
	c2.565,1.648,4.447,3.701,5.655,6.157c1.2,2.452,1.805,5.336,1.805,8.631C501.773,46.032,501.557,48.308,501.122,50.718z
	 M484.858,50.718c0.077-0.212,0.15-0.582,0.219-1.086c0.073-0.508,0.185-1.019,0.331-1.529c0.146-0.585,0.251-1.239,0.328-1.971
	c0.226-1.166,0.333-2.252,0.333-3.271c0-3.861-1.5-6.614-4.503-8.25c-3.007-1.636-7.43-2.489-13.296-2.57
	c-6.96,0-12.322,1.249-16.095,3.717c-3.776,2.479-6.279,6.81-7.518,13l-0.455,1.959H484.858z"/>
<path fill="#FFFFFF" d="M514.303,25.678l2.975-15.827l16.365-5.491l-4.062,21.318h17.693l-1.655,8.786h-17.684l-6.376,33.729
	c-0.141,0.727-0.269,1.513-0.385,2.352c-0.111,0.855,0.016,1.602,0.385,2.263c0.292,0.586,0.782,1.055,1.479,1.428
	c0.694,0.358,1.748,0.548,3.142,0.548h11.644l-1.648,8.561h-17.253c-5.124,0-8.607-0.743-10.435-2.252
	c-1.841-1.498-2.742-3.753-2.742-6.749c0-1.1,0.081-2.325,0.273-3.684c0.171-1.354,0.409-2.802,0.712-4.338l5.924-31.859
	L514.303,25.678z"/>
<g>
	<g>
		<path fill="#FFFFFF" d="M562.602,25.678l1.434-7.591c0.662-3.295,1.482-6.049,2.467-8.292c0.986-2.232,2.311-4.057,3.955-5.493
			c1.647-1.425,3.667-2.449,6.044-3.072c2.379-0.627,5.22-0.936,8.516-0.936h15.606l-1.657,8.789h-9.327
			c-1.762,0-3.208,0.154-4.344,0.442c-1.141,0.288-2.09,0.824-2.86,1.594c-0.772,0.766-1.38,1.767-1.803,3.018
			c-0.446,1.251-0.846,2.826-1.216,4.727l-1.211,6.814h17.578l-1.647,8.786h-17.578l-9.227,48.881h-15.603l9.338-48.881
			L562.602,25.678z"/>
		<path fill="#FFFFFF" d="M647.575,83.346l1.105-6.04c-0.303,0.15-1.105,0.423-2.426,0.831c-1.316,0.404-2.921,0.863-4.827,1.375
			c-1.911,0.508-4.039,1.04-6.381,1.582c-2.339,0.558-4.696,1.066-7.078,1.548c-2.383,0.473-4.732,0.873-7.04,1.212
			c-2.305,0.32-4.378,0.481-6.206,0.481c-6.001,0-10.581-1.112-13.728-3.341c-3.147-2.244-4.719-6.063-4.719-11.479
			c0-2.271,0.244-4.697,0.759-7.253l6.929-36.584h15.485l-6.473,34.609c-0.449,2.333-0.672,4.28-0.672,5.816
			c0,2.93,0.859,5.016,2.593,6.263c1.721,1.244,4.688,1.871,8.948,1.871c0.88,0,1.906-0.077,3.078-0.223
			c1.169-0.15,2.431-0.327,3.788-0.554c1.354-0.215,2.739-0.477,4.167-0.771c1.434-0.285,2.847-0.581,4.239-0.869
			c3.219-0.735,6.552-1.578,9.997-2.533l8.237-43.609h15.388l-10.879,57.667H647.575z"/>
		<path fill="#FFFFFF" d="M750.135,50.718c-0.21,1.1-0.454,2.144-0.7,3.137c-0.249,0.99-0.505,1.886-0.721,2.695
			c-0.292,0.869-0.518,1.752-0.662,2.633h-56.357l-0.115,0.651c-0.141,0.804-0.254,1.55-0.318,2.244
			c-0.074,0.692-0.108,1.363-0.108,2.013c0,2.983,0.608,5.282,1.862,6.872c1.249,1.604,2.903,2.756,5.001,3.44
			c2.088,0.698,4.478,1.098,7.191,1.213c2.703,0.1,5.493,0.154,8.353,0.154c3.011,0,5.909-0.065,8.735-0.212
			c2.818-0.131,5.388-0.3,7.686-0.5c2.308-0.219,4.275-0.401,5.875-0.578c1.613-0.165,2.711-0.292,3.303-0.362l-1.649,8.904
			c-0.592,0.073-1.718,0.215-3.406,0.435c-1.69,0.227-3.703,0.462-6.055,0.716c-2.329,0.259-4.911,0.477-7.737,0.662
			c-2.818,0.182-5.616,0.277-8.399,0.277c-6.673,0-12.336-0.385-17.034-1.159c-4.691-0.766-8.494-1.994-11.425-3.676
			c-2.934-1.681-5.075-3.811-6.419-6.378c-1.362-2.552-2.031-5.67-2.031-9.331c0-1.251,0.069-2.567,0.208-3.957
			c0.154-1.39,0.377-2.852,0.669-4.4l0.985-5.593c0.728-3.811,2.057-7.33,4.016-10.548c1.936-3.229,4.596-6.024,7.953-8.405
			c3.367-2.39,7.507-4.23,12.423-5.554c4.904-1.317,10.687-1.975,17.357-1.975c5.709,0,10.617,0.423,14.716,1.262
			c4.103,0.839,7.435,2.086,9.997,3.73c2.562,1.648,4.452,3.701,5.66,6.157c1.213,2.452,1.816,5.336,1.816,8.631
			C750.804,46.032,750.586,48.308,750.135,50.718z M733.888,50.718c0.064-0.212,0.141-0.582,0.218-1.086
			c0.074-0.508,0.182-1.019,0.323-1.529c0.151-0.585,0.262-1.239,0.336-1.971c0.215-1.166,0.333-2.252,0.333-3.271
			c0-3.861-1.505-6.614-4.514-8.25c-3.001-1.636-7.43-2.489-13.297-2.57c-6.953,0-12.318,1.249-16.088,3.717
			c-3.773,2.479-6.278,6.81-7.525,13l-0.439,1.959H733.888z"/>
		<path fill="#FFFFFF" d="M783.908,0.145l-13.046,67.657c-0.151,0.739-0.274,1.521-0.377,2.363c-0.108,0.844,0.018,1.59,0.377,2.255
			c0.3,0.578,0.792,1.067,1.49,1.425c0.7,0.365,1.736,0.55,3.131,0.55h16.231l-1.657,8.985h-21.825
			c-5.137,0-8.612-0.742-10.44-2.252c-1.834-1.498-2.752-3.757-2.752-6.753c0-1.1,0.1-2.321,0.285-3.684
			c0.185-1.35,0.418-2.798,0.708-4.334l12.61-66.213H783.908z"/>
	</g>
</g>
</svg>
